#!OML:ASF F:\VICON\USERDATA\INSTALL\rory3\rory3.ASF
:FULLY-SPECIFIED
:DEGREES
563
root 2.82417 16.7375 -0.15823 15.1852 4.55515 11.2214
lowerback -6.65813 1.77696 0.275841
upperback -2.11305 2.52697 -7.02771
thorax 1.87967 1.27976 -7.29781
lowerneck -3.21708 14.7694 4.57486
upperneck 48.4425 24.4841 -0.770846
head 20.5556 10.6115 3.0624
rclavicle -1.4561e-014 -2.54444e-014
rhumerus -36.4545 4.17027 -92.7987
rradius 42.4196
rwrist -38.7714
rhand -9.67494 -50.3015
rfingers 7.12502
rthumb 16.2967 -79.6367
lclavicle -1.4561e-014 -2.54444e-014
lhumerus -27.6228 -19.7267 82.3154
lradius 41.2085
lwrist 74.1427
lhand -38.5264 -13.2665
lfingers 7.12502
lthumb -11.5469 16.3955
rfemur -51.5931 24.0682 -6.67374
rtibia 73.9904
rfoot 3.35552 10.8918
rtoes -42.844
lfemur -32.7617 -6.72865 -36.0687
ltibia 38.4643
lfoot -16.4588 11.1387
ltoes 4.45241
564
root 2.82402 16.7521 -0.144218 14.7036 5.18116 11.5458
lowerback -6.32453 1.52865 0.0490639
upperback -1.89146 2.20959 -7.04943
thorax 1.87488 1.12306 -7.22287
lowerneck -3.1629 14.7666 4.56273
upperneck 48.3949 24.4843 -0.80769
head 20.5135 10.6119 3.03578
rclavicle 1.59028e-014 -4.65156e-014
rhumerus -36.4902 4.17968 -92.7984
rradius 42.4391
rwrist -38.7546
rhand -9.51102 -50.3547
rfingers 7.12502
rthumb 16.4545 -79.6769
lclavicle 1.59028e-014 -4.65156e-014
lhumerus -27.6321 -19.6611 82.3071
lradius 41.2223
lwrist 74.2402
lhand -38.7063 -13.0266
lfingers 7.12502
lthumb -11.7204 16.6255
rfemur -50.4201 23.841 -6.38463
rtibia 73.9296
rfoot 3.04069 10.6243
rtoes -43.0777
lfemur -31.9719 -7.09134 -36.3133
ltibia 38.3767
lfoot -16.5552 10.8785
ltoes 5.22804
565
root 2.8226 16.7391 -0.156371 15.2418 4.47591 11.3006
lowerback -6.77471 1.8192 0.164764
upperback -2.1657 2.59412 -7.09343
thorax 1.89697 1.31304 -7.29609
lowerneck -2.74244 14.6759 4.91099
upperneck 48.0839 24.3763 -1.18231
head 20.3436 10.6249 2.73505
rclavicle 2.86747e-014 -3.97569e-015
rhumerus -36.625 3.98893 -92.8083
rradius 42.5129
rwrist -38.756
rhand -9.28192 -50.4344
rfingers 7.12502
rthumb 16.675 -79.7382
lclavicle 2.86747e-014 -3.97569e-015
lhumerus -27.6929 -19.8931 82.3201
lradius 41.2408
lwrist 74.2529
lhand -38.8128 -13.0842
lfingers 7.12502
lthumb -11.8231 16.5621
rfemur -51.6351 24.0279 -6.75715
rtibia 73.9874
rfoot 3.16916 10.7803
rtoes -43.1424
lfemur -32.8509 -6.72816 -36.1157
ltibia 38.4542
lfoot -16.5174 10.9232
ltoes 6.15714
566
root 2.82254 16.7397 -0.158151 15.2307 4.47107 11.1968
lowerback -6.72519 1.87225 0.319171
upperback -2.2183 2.65114 -7.11708
thorax 1.82993 1.34035 -7.40804
lowerneck -2.43554 14.6189 5.19488
upperneck 47.8398 24.3237 -1.48599
head 20.2238 10.646 2.50435
rclavicle -8.99501e-015 6.36111e-015
rhumerus -36.7273 3.87566 -92.8225
rradius 42.5048
rwrist -38.8106
rhand -9.10232 -50.2438
rfingers 7.12502
rthumb 16.8479 -79.533
lclavicle -8.99501e-015 6.36111e-015
lhumerus -27.8103 -20.0615 82.3478
lradius 41.2253
lwrist 74.1569
lhand -38.777 -13.1325
lfingers 7.12502
lthumb -11.7886 16.5157
rfemur -51.6665 24.0865 -6.66349
rtibia 73.9819
rfoot 3.30855 10.6466
rtoes -42.8415
lfemur -32.8857 -6.70286 -36.0076
ltibia 38.5184
lfoot -16.5701 10.961
ltoes 6.15489
567
root 2.82078 16.74 -0.157311 15.1873 4.45461 11.169
lowerback -6.67235 1.86083 0.287566
upperback -2.22278 2.6343 -7.07466
thorax 1.79019 1.33077 -7.34665
lowerneck -2.92556 14.7469 4.93442
upperneck 48.4734 24.4539 -0.878662
head 20.6061 10.6576 2.94043
rclavicle 3.32964e-015 -3.65764e-014
rhumerus -36.7247 3.94515 -92.7843
rradius 42.4503
rwrist -38.8549
rhand -9.03421 -50.1699
rfingers 7.12502
rthumb 16.9135 -79.4534
lclavicle 3.32964e-015 -3.65764e-014
lhumerus -27.8737 -19.9365 82.3882
lradius 41.2069
lwrist 74.0134
lhand -38.7591 -12.8425
lfingers 7.12502
lthumb -11.7713 16.8067
rfemur -51.6561 24.153 -6.62239
rtibia 74.0131
rfoot 3.37237 10.6206
rtoes -42.5914
lfemur -32.93 -6.66586 -35.9697
ltibia 38.6784
lfoot -16.7451 10.8973
ltoes 6.55005
568
root 2.81765 16.7356 -0.157555 15.187 4.43298 11.1267
lowerback -6.65772 1.83394 0.249407
upperback -2.23026 2.59853 -7.04142
thorax 1.76637 1.31187 -7.29223
lowerneck -2.42602 14.658 5.22496
upperneck 47.872 24.4191 -1.54582
head 20.2756 10.6771 2.49566
rclavicle -1.19768e-014 2.78299e-015
rhumerus -36.7233 4.00553 -92.8049
rradius 42.4328
rwrist -38.8241
rhand -9.50395 -49.8071
rfingers 7.12502
rthumb 16.4613 -79.1287
lclavicle -1.19768e-014 2.78299e-015
lhumerus -27.8605 -19.8291 82.356
lradius 41.2222
lwrist 73.8959
lhand -38.9942 -12.172
lfingers 7.12502
lthumb -11.9981 17.4641
rfemur -51.7285 24.1852 -6.57523
rtibia 74.0606
rfoot 3.37862 10.6497
rtoes -42.5078
lfemur -32.9375 -6.59976 -35.9292
ltibia 38.7223
lfoot -16.7441 10.9229
ltoes 5.98537
569
root 2.81595 16.7314 -0.158798 15.2065 4.42459 11.1042
lowerback -6.53839 1.81769 0.240913
upperback -2.31838 2.56783 -7.04968
thorax 1.60424 1.29217 -7.30323
lowerneck -2.88035 14.7875 5.13514
upperneck 48.4823 24.5877 -1.06654
head 20.7082 10.7146 2.86033
rclavicle 7.79236e-014 -1.10524e-013
rhumerus -36.8662 3.95041 -92.8445
rradius 42.4816
rwrist -38.7805
rhand -10.8202 -48.4201
rfingers 7.12502
rthumb 15.1937 -77.8422
lclavicle 7.79236e-014 -1.10524e-013
lhumerus -27.9565 -19.8588 82.3349
lradius 41.2205
lwrist 73.8474
lhand -39.26 -11.7876
lfingers 7.12502
lthumb -12.2544 17.8334
rfemur -51.788 24.2011 -6.56889
rtibia 74.0958
rfoot 3.69804 10.3838
rtoes -41.6353
lfemur -32.9158 -6.55953 -35.9172
ltibia 38.7462
lfoot -16.7168 10.9898
ltoes 5.33267
570
root 2.81778 16.733 -0.156629 15.1906 4.37824 11.1826
lowerback -6.38111 1.85512 0.190893
upperback -2.43492 2.60944 -7.08525
thorax 1.40029 1.30799 -7.31487
lowerneck -2.31917 14.6584 5.29452
upperneck 47.9277 24.4668 -1.60068
head 20.3227 10.7034 2.46652
rclavicle 7.35503e-015 -4.45278e-014
rhumerus -37.0804 3.8201 -92.7857
rradius 42.4692
rwrist -38.7833
rhand -9.80654 -50.5149
rfingers 7.12502
rthumb 16.1699 -79.8605
lclavicle 7.35503e-015 -4.45278e-014
lhumerus -28.1713 -19.9902 82.4599
lradius 41.1997
lwrist 73.8229
lhand -39.3828 -11.8348
lfingers 7.12502
lthumb -12.3728 17.779
rfemur -51.7302 24.2165 -6.67569
rtibia 74.0932
rfoot 4.04427 10.0798
rtoes -40.5145
lfemur -32.9164 -6.57733 -35.9958
ltibia 38.7536
lfoot -16.7567 10.9229
ltoes 6.1291
571
root 2.82063 16.7341 -0.153868 15.1899 4.35498 11.2288
lowerback -6.3323 1.84717 0.157952
upperback -2.45323 2.59736 -7.06988
thorax 1.35037 1.30073 -7.28175
lowerneck -2.82726 14.7683 4.88386
upperneck 48.5217 24.5514 -0.934372
head 20.6287 10.6842 2.93307
rclavicle -4.46769e-014 2.74323e-014
rhumerus -37.0732 3.92662 -92.7299
rradius 42.4045
rwrist -38.8573
rhand -10.5416 -49.4007
rfingers 7.12502
rthumb 15.462 -78.8024
lclavicle -4.46769e-014 2.74323e-014
lhumerus -28.2814 -19.9219 82.531
lradius 41.2657
lwrist 73.8465
lhand -39.2924 -11.9931
lfingers 7.12502
lthumb -12.2856 17.626
rfemur -51.6807 24.1946 -6.73239
rtibia 74.0857
rfoot 3.64737 10.4269
rtoes -41.7441
lfemur -32.9588 -6.59264 -36.0474
ltibia 38.7385
lfoot -16.7717 10.8732
ltoes 6.69725
572
root 2.82109 16.7336 -0.152735 15.2394 4.34717 11.1908
lowerback -6.37616 1.8061 0.159128
upperback -2.4119 2.54527 -7.03786
thorax 1.40968 1.27592 -7.25044
lowerneck -2.62977 14.7283 4.94991
upperneck 47.9879 24.5423 -1.38642
head 20.3214 10.683 2.65226
rclavicle 1.0312e-014 -2.54444e-014
rhumerus -36.9175 4.1185 -92.7578
rradius 42.3641
rwrist -38.9685
rhand -10.5487 -49.2301
rfingers 7.12502
rthumb 15.4552 -78.6323
lclavicle 1.0312e-014 -2.54444e-014
lhumerus -28.2323 -19.7932 82.4648
lradius 41.3548
lwrist 73.9161
lhand -39.2169 -12.1773
lfingers 7.12502
lthumb -12.2128 17.4462
rfemur -51.7413 24.2011 -6.72022
rtibia 74.0802
rfoot 3.27987 10.6688
rtoes -42.698
lfemur -33.007 -6.57544 -36.0127
ltibia 38.7138
lfoot -16.7833 10.895
ltoes 6.58827
